<mxfile host="65bd71144e">
    <diagram id="zfucaXMtGKHsCH8ExMEn" name="Page-1">
        <mxGraphModel dx="796" dy="379" grid="1" gridSize="10" guides="1" tooltips="1" connect="1" arrows="1" fold="1" page="1" pageScale="1" pageWidth="827" pageHeight="1169" math="0" shadow="0">
            <root>
                <mxCell id="0"/>
                <mxCell id="1" parent="0"/>
                <mxCell id="5" value="" style="edgeStyle=none;html=1;entryX=0;entryY=0.5;entryDx=0;entryDy=0;" edge="1" parent="1" source="2" target="6">
                    <mxGeometry relative="1" as="geometry">
                        <mxPoint x="420" y="280" as="targetPoint"/>
                    </mxGeometry>
                </mxCell>
                <mxCell id="2" value="useState&lt;br&gt;default:false" style="rounded=0;whiteSpace=wrap;html=1;" vertex="1" parent="1">
                    <mxGeometry x="220" y="250" width="120" height="60" as="geometry"/>
                </mxCell>
                <mxCell id="3" value="&lt;h1&gt;Heading&lt;/h1&gt;&lt;p&gt;Lorem ipsum dolor sit amet, consectetur adipisicing elit, sed do eiusmod tempor incididunt ut labore et dolore magna aliqua.&lt;/p&gt;" style="text;html=1;strokeColor=none;fillColor=none;spacing=5;spacingTop=-20;whiteSpace=wrap;overflow=hidden;rounded=0;" vertex="1" parent="1">
                    <mxGeometry x="70" y="70" width="190" height="120" as="geometry"/>
                </mxCell>
                <mxCell id="8" value="" style="edgeStyle=none;html=1;" edge="1" parent="1" source="6" target="7">
                    <mxGeometry relative="1" as="geometry"/>
                </mxCell>
                <mxCell id="11" value="" style="edgeStyle=none;html=1;" edge="1" parent="1" source="6" target="10">
                    <mxGeometry relative="1" as="geometry"/>
                </mxCell>
                <mxCell id="6" value="data received" style="rhombus;whiteSpace=wrap;html=1;" vertex="1" parent="1">
                    <mxGeometry x="400" y="235" width="110" height="90" as="geometry"/>
                </mxCell>
                <mxCell id="7" value="Show Spinner" style="whiteSpace=wrap;html=1;" vertex="1" parent="1">
                    <mxGeometry x="560" y="250" width="120" height="60" as="geometry"/>
                </mxCell>
                <mxCell id="9" value="False" style="text;html=1;strokeColor=none;fillColor=none;align=center;verticalAlign=middle;whiteSpace=wrap;rounded=0;" vertex="1" parent="1">
                    <mxGeometry x="500" y="250" width="60" height="30" as="geometry"/>
                </mxCell>
                <mxCell id="10" value="Show data" style="whiteSpace=wrap;html=1;" vertex="1" parent="1">
                    <mxGeometry x="395" y="410" width="120" height="60" as="geometry"/>
                </mxCell>
                <mxCell id="12" value="true" style="text;html=1;strokeColor=none;fillColor=none;align=center;verticalAlign=middle;whiteSpace=wrap;rounded=0;" vertex="1" parent="1">
                    <mxGeometry x="460" y="350" width="60" height="30" as="geometry"/>
                </mxCell>
            </root>
        </mxGraphModel>
    </diagram>
</mxfile>